<svg width="174" height="27" viewBox="0 0 174 27" fill="none" xmlns="http://www.w3.org/2000/svg">
<path d="M31.3574 21H29.6973V8.19727H25.1758V6.72266H35.8789V8.19727H31.3574V21ZM39.3164 10.2969V17.2402C39.3164 18.1126 39.515 18.7637 39.9121 19.1934C40.3092 19.623 40.931 19.8379 41.7773 19.8379C42.8971 19.8379 43.7142 19.5319 44.2285 18.9199C44.7493 18.3079 45.0098 17.3086 45.0098 15.9219V10.2969H46.6309V21H45.293L45.0586 19.5645H44.9707C44.6387 20.0918 44.1764 20.4954 43.584 20.7754C42.998 21.0553 42.3275 21.1953 41.5723 21.1953C40.2702 21.1953 39.2936 20.8861 38.6426 20.2676C37.998 19.6491 37.6758 18.6595 37.6758 17.2988V10.2969H39.3164ZM54.9609 10.1016C55.4362 10.1016 55.8626 10.1406 56.2402 10.2188L56.0156 11.7227C55.5729 11.625 55.1823 11.5762 54.8438 11.5762C53.9779 11.5762 53.2357 11.9277 52.6172 12.6309C52.0052 13.334 51.6992 14.2096 51.6992 15.2578V21H50.0781V10.2969H51.416L51.6016 12.2793H51.6797C52.0768 11.5827 52.5553 11.0456 53.1152 10.668C53.6751 10.2904 54.2904 10.1016 54.9609 10.1016ZM65.5664 21V14.0762C65.5664 13.2038 65.3678 12.5527 64.9707 12.123C64.5736 11.6934 63.9518 11.4785 63.1055 11.4785C61.9857 11.4785 61.1654 11.7812 60.6445 12.3867C60.1237 12.9922 59.8633 13.9915 59.8633 15.3848V21H58.2422V10.2969H59.5605L59.8242 11.7617H59.9023C60.2344 11.2344 60.6999 10.8275 61.2988 10.541C61.8978 10.248 62.5651 10.1016 63.3008 10.1016C64.5898 10.1016 65.5599 10.4141 66.2109 11.0391C66.862 11.6576 67.1875 12.6504 67.1875 14.0176V21H65.5664ZM84.9609 15.6387C84.9609 17.3835 84.5215 18.7474 83.6426 19.7305C82.7637 20.707 81.5495 21.1953 80 21.1953C79.043 21.1953 78.1934 20.9707 77.4512 20.5215C76.709 20.0723 76.1361 19.4277 75.7324 18.5879C75.3288 17.748 75.127 16.765 75.127 15.6387C75.127 13.8939 75.5632 12.5365 76.4355 11.5664C77.3079 10.5898 78.5189 10.1016 80.0684 10.1016C81.5658 10.1016 82.7539 10.5996 83.6328 11.5957C84.5182 12.5918 84.9609 13.9395 84.9609 15.6387ZM76.8066 15.6387C76.8066 17.0059 77.0801 18.0475 77.627 18.7637C78.1738 19.4798 78.9779 19.8379 80.0391 19.8379C81.1003 19.8379 81.9043 19.4831 82.4512 18.7734C83.0046 18.0573 83.2812 17.0124 83.2812 15.6387C83.2812 14.278 83.0046 13.2461 82.4512 12.543C81.9043 11.8333 81.0938 11.4785 80.0195 11.4785C78.9583 11.4785 78.1576 11.8268 77.6172 12.5234C77.0768 13.2201 76.8066 14.2585 76.8066 15.6387ZM95.1367 21V14.0762C95.1367 13.2038 94.9382 12.5527 94.541 12.123C94.1439 11.6934 93.5221 11.4785 92.6758 11.4785C91.556 11.4785 90.7357 11.7812 90.2148 12.3867C89.694 12.9922 89.4336 13.9915 89.4336 15.3848V21H87.8125V10.2969H89.1309L89.3945 11.7617H89.4727C89.8047 11.2344 90.2702 10.8275 90.8691 10.541C91.4681 10.248 92.1354 10.1016 92.8711 10.1016C94.1602 10.1016 95.1302 10.4141 95.7812 11.0391C96.4323 11.6576 96.7578 12.6504 96.7578 14.0176V21H95.1367ZM114.531 15.6387C114.531 17.3835 114.092 18.7474 113.213 19.7305C112.334 20.707 111.12 21.1953 109.57 21.1953C108.613 21.1953 107.764 20.9707 107.021 20.5215C106.279 20.0723 105.706 19.4277 105.303 18.5879C104.899 17.748 104.697 16.765 104.697 15.6387C104.697 13.8939 105.133 12.5365 106.006 11.5664C106.878 10.5898 108.089 10.1016 109.639 10.1016C111.136 10.1016 112.324 10.5996 113.203 11.5957C114.089 12.5918 114.531 13.9395 114.531 15.6387ZM106.377 15.6387C106.377 17.0059 106.65 18.0475 107.197 18.7637C107.744 19.4798 108.548 19.8379 109.609 19.8379C110.671 19.8379 111.475 19.4831 112.021 18.7734C112.575 18.0573 112.852 17.0124 112.852 15.6387C112.852 14.278 112.575 13.2461 112.021 12.543C111.475 11.8333 110.664 11.4785 109.59 11.4785C108.529 11.4785 107.728 11.8268 107.188 12.5234C106.647 13.2201 106.377 14.2585 106.377 15.6387ZM122.266 10.1016C122.741 10.1016 123.167 10.1406 123.545 10.2188L123.32 11.7227C122.878 11.625 122.487 11.5762 122.148 11.5762C121.283 11.5762 120.54 11.9277 119.922 12.6309C119.31 13.334 119.004 14.2096 119.004 15.2578V21H117.383V10.2969H118.721L118.906 12.2793H118.984C119.382 11.5827 119.86 11.0456 120.42 10.668C120.98 10.2904 121.595 10.1016 122.266 10.1016ZM127.168 21H125.547V10.2969H127.168V21ZM125.41 7.39648C125.41 7.02539 125.501 6.75521 125.684 6.58594C125.866 6.41016 126.094 6.32227 126.367 6.32227C126.628 6.32227 126.852 6.41016 127.041 6.58594C127.23 6.76172 127.324 7.0319 127.324 7.39648C127.324 7.76107 127.23 8.03451 127.041 8.2168C126.852 8.39258 126.628 8.48047 126.367 8.48047C126.094 8.48047 125.866 8.39258 125.684 8.2168C125.501 8.03451 125.41 7.76107 125.41 7.39648ZM139.365 10.2969V11.3223L137.383 11.5566C137.565 11.7845 137.728 12.084 137.871 12.4551C138.014 12.8197 138.086 13.2331 138.086 13.6953C138.086 14.7435 137.728 15.5801 137.012 16.2051C136.296 16.8301 135.312 17.1426 134.062 17.1426C133.743 17.1426 133.444 17.1165 133.164 17.0645C132.474 17.429 132.129 17.888 132.129 18.4414C132.129 18.7344 132.249 18.9525 132.49 19.0957C132.731 19.2324 133.145 19.3008 133.73 19.3008H135.625C136.784 19.3008 137.673 19.5449 138.291 20.0332C138.916 20.5215 139.229 21.2311 139.229 22.1621C139.229 23.347 138.753 24.2487 137.803 24.8672C136.852 25.4922 135.465 25.8047 133.643 25.8047C132.243 25.8047 131.162 25.5443 130.4 25.0234C129.645 24.5026 129.268 23.7669 129.268 22.8164C129.268 22.1654 129.476 21.6022 129.893 21.127C130.309 20.6517 130.895 20.3294 131.65 20.1602C131.377 20.0365 131.146 19.8444 130.957 19.584C130.775 19.3236 130.684 19.0208 130.684 18.6758C130.684 18.2852 130.788 17.9434 130.996 17.6504C131.204 17.3574 131.533 17.0742 131.982 16.8008C131.429 16.5729 130.977 16.1855 130.625 15.6387C130.28 15.0918 130.107 14.4668 130.107 13.7637C130.107 12.5918 130.459 11.6901 131.162 11.0586C131.865 10.4206 132.861 10.1016 134.15 10.1016C134.71 10.1016 135.215 10.1667 135.664 10.2969H139.365ZM130.83 22.7969C130.83 23.3763 131.074 23.8158 131.562 24.1152C132.051 24.4147 132.751 24.5645 133.662 24.5645C135.023 24.5645 136.029 24.3594 136.68 23.9492C137.337 23.5456 137.666 22.9954 137.666 22.2988C137.666 21.7194 137.487 21.3158 137.129 21.0879C136.771 20.8665 136.097 20.7559 135.107 20.7559H133.164C132.428 20.7559 131.855 20.9316 131.445 21.2832C131.035 21.6348 130.83 22.1393 130.83 22.7969ZM131.709 13.7246C131.709 14.4733 131.921 15.0397 132.344 15.4238C132.767 15.8079 133.356 16 134.111 16C135.693 16 136.484 15.2318 136.484 13.6953C136.484 12.0872 135.684 11.2832 134.082 11.2832C133.32 11.2832 132.734 11.4883 132.324 11.8984C131.914 12.3086 131.709 12.9173 131.709 13.7246ZM143.184 21H141.562V10.2969H143.184V21ZM141.426 7.39648C141.426 7.02539 141.517 6.75521 141.699 6.58594C141.882 6.41016 142.109 6.32227 142.383 6.32227C142.643 6.32227 142.868 6.41016 143.057 6.58594C143.245 6.76172 143.34 7.0319 143.34 7.39648C143.34 7.76107 143.245 8.03451 143.057 8.2168C142.868 8.39258 142.643 8.48047 142.383 8.48047C142.109 8.48047 141.882 8.39258 141.699 8.2168C141.517 8.03451 141.426 7.76107 141.426 7.39648ZM153.945 21V14.0762C153.945 13.2038 153.747 12.5527 153.35 12.123C152.952 11.6934 152.331 11.4785 151.484 11.4785C150.365 11.4785 149.544 11.7812 149.023 12.3867C148.503 12.9922 148.242 13.9915 148.242 15.3848V21H146.621V10.2969H147.939L148.203 11.7617H148.281C148.613 11.2344 149.079 10.8275 149.678 10.541C150.277 10.248 150.944 10.1016 151.68 10.1016C152.969 10.1016 153.939 10.4141 154.59 11.0391C155.241 11.6576 155.566 12.6504 155.566 14.0176V21H153.945ZM165.488 21L165.166 19.4766H165.088C164.554 20.1471 164.02 20.6029 163.486 20.8438C162.959 21.0781 162.298 21.1953 161.504 21.1953C160.443 21.1953 159.609 20.9219 159.004 20.375C158.405 19.8281 158.105 19.0501 158.105 18.041C158.105 15.8796 159.834 14.7467 163.291 14.6426L165.107 14.584V13.9199C165.107 13.0801 164.925 12.4616 164.561 12.0645C164.202 11.6608 163.626 11.459 162.832 11.459C161.94 11.459 160.931 11.7324 159.805 12.2793L159.307 11.0391C159.834 10.7526 160.41 10.528 161.035 10.3652C161.667 10.2025 162.298 10.1211 162.93 10.1211C164.206 10.1211 165.15 10.4043 165.762 10.9707C166.38 11.5371 166.689 12.4453 166.689 13.6953V21H165.488ZM161.826 19.8574C162.835 19.8574 163.626 19.5807 164.199 19.0273C164.779 18.474 165.068 17.6992 165.068 16.7031V15.7363L163.447 15.8047C162.158 15.8503 161.227 16.0521 160.654 16.4102C160.088 16.7617 159.805 17.3118 159.805 18.0605C159.805 18.6465 159.98 19.0924 160.332 19.3984C160.69 19.7044 161.188 19.8574 161.826 19.8574ZM171.66 21H170.039V5.80469H171.66V21Z" fill="white"/>
<circle cx="7.5" cy="13.5" r="7" fill="white" fill-opacity="0.2" stroke="#CECECE"/>
</svg>
